<svg width="100" height="100" viewBox="0 0 100 100" fill="none" xmlns="http://www.w3.org/2000/svg">
<g clip-path="url(#clip0_366_95)">
<path d="M12.1251 35.9507L8.8551 39.2207C6.9351 41.1407 6.7051 44.6107 8.8551 46.7607L12.1351 50.0407L46.8051 84.7007C47.7251 85.6207 48.1951 86.2207 48.9851 85.8907C49.7051 85.5807 49.7051 84.7107 49.7051 83.3807V75.9607C49.7151 74.1107 49.5151 73.4407 48.7751 72.6107L47.4351 71.2707L47.3851 71.2207L36.5351 60.3607L21.2051 45.0207C19.8951 43.5607 19.5651 42.5007 21.1751 40.9807L36.5451 25.6107L47.4051 14.7507L47.4551 14.7007L48.7951 13.3607C49.5251 12.5307 49.7351 11.8607 49.7251 10.0107V2.6007C49.7251 1.2707 49.7251 0.400703 49.0051 0.0907031C48.1951 -0.239297 47.7251 0.370703 46.8051 1.2807L12.1351 35.9607L12.1251 35.9507Z" fill="#3B5360"/>
<path d="M63.8155 12.1207L60.5455 8.85071C58.6255 6.93071 55.1555 6.70071 53.0055 8.85071L49.7255 12.1307L15.0555 46.8107C14.1355 47.7307 13.5355 48.2007 13.8655 48.9907C14.1755 49.7207 15.0455 49.7107 16.3755 49.7107H23.8055C25.6555 49.7207 26.3255 49.5207 27.1555 48.7807L28.4955 47.4407L28.5455 47.3907L39.4055 36.5307L54.7455 21.1907C56.2055 19.8807 57.2655 19.5507 58.7855 21.1607L74.1555 36.5307L85.0155 47.3907L85.0655 47.4407L86.4055 48.7807C87.2355 49.5107 87.9055 49.7207 89.7555 49.7107H97.1855C98.5155 49.7107 99.3855 49.7107 99.6955 48.9907C100.035 48.2007 99.4255 47.7307 98.5055 46.8107L63.8055 12.1307L63.8155 12.1207Z" fill="#4FCFB5"/>
<path d="M87.6455 63.8107L90.9155 60.5407C92.8355 58.6207 93.0655 55.1507 90.9155 53.0007L87.6355 49.7207L52.9555 15.0607C52.0355 14.1407 51.5655 13.5407 50.7755 13.8707C50.0555 14.1807 50.0555 15.0407 50.0555 16.3807V23.8107C50.0455 25.6507 50.2455 26.3307 50.9855 27.1607L52.3255 28.5007L52.3755 28.5507L63.2355 39.4107L78.5755 54.7507C79.8855 56.2107 80.2155 57.2707 78.6055 58.7807L63.2255 74.1407L52.3755 84.9907L52.3255 85.0407L50.9855 86.3807C50.2555 87.2107 50.0455 87.8807 50.0555 89.7307V97.1607C50.0555 98.4907 50.0555 99.3607 50.7755 99.6707C51.5655 100.011 52.0355 99.4007 52.9555 98.4807L87.6355 63.8007L87.6455 63.8107Z" fill="#FAF7F0"/>
<path d="M35.9453 87.6406L39.2153 90.9106C41.1353 92.8306 44.6053 93.0606 46.7553 90.9106L50.0353 87.6306L84.7053 52.9506C85.6253 52.0306 86.2253 51.5606 85.8953 50.7706C85.5853 50.0406 84.7253 50.0506 83.3853 50.0506H75.9553C74.1053 50.0406 73.4353 50.2406 72.6053 50.9806L71.2653 52.3206L71.2153 52.3706L60.3653 63.2206L45.0253 78.5606C43.5653 79.8706 42.5053 80.2006 40.9853 78.5906L25.6253 63.2206L14.7653 52.3706L14.7153 52.3206L13.3753 50.9806C12.5453 50.2506 11.8753 50.0406 10.0253 50.0506H2.60531C1.27531 50.0506 0.405309 50.0506 0.0953088 50.7706C-0.244691 51.5606 0.365309 52.0306 1.28531 52.9506L35.9653 87.6306L35.9453 87.6406Z" fill="#333333"/>
<path d="M14.0454 51.6507L46.8054 84.7007C47.7254 85.6207 48.1954 86.2207 48.9854 85.8907C49.7054 85.5807 49.7054 84.7108 49.7054 83.3807V75.9607C49.7154 74.1107 49.5154 73.4407 48.7754 72.6107L47.4354 71.2707L47.3854 71.2207L36.5354 60.3607L27.8254 51.6407H14.0454V51.6507Z" fill="#3B5360"/>
</g>
<defs>
<clipPath id="clip0_366_95">
<rect width="99.7906" height="99.766" fill="white"/>
</clipPath>
</defs>
</svg>
